<mxfile host="app.diagrams.net" modified="2024-06-01T01:31:27.100Z" agent="Mozilla/5.0 (Windows NT 10.0; Win64; x64) AppleWebKit/537.36 (KHTML, like Gecko) Chrome/125.0.0.0 Safari/537.36 Edg/125.0.0.0" etag="v013Vi6Lr9-5J2Kwv77Y" version="24.4.13" type="device">
  <diagram id="R2lEEEUBdFMjLlhIrx00" name="Page-1">
    <mxGraphModel dx="2085" dy="694" grid="1" gridSize="10" guides="1" tooltips="1" connect="1" arrows="1" fold="1" page="1" pageScale="1" pageWidth="850" pageHeight="1100" math="0" shadow="0" extFonts="Permanent Marker^https://fonts.googleapis.com/css?family=Permanent+Marker">
      <root>
        <mxCell id="0" />
        <mxCell id="1" parent="0" />
        <mxCell id="Z4Fr1Y4ZUjvE4ZE1ew2G-1" value="roles" style="whiteSpace=wrap;html=1;align=center;" vertex="1" parent="1">
          <mxGeometry x="325" y="210" width="100" height="40" as="geometry" />
        </mxCell>
        <mxCell id="Z4Fr1Y4ZUjvE4ZE1ew2G-2" value="tokens" style="whiteSpace=wrap;html=1;align=center;" vertex="1" parent="1">
          <mxGeometry x="325" y="150" width="100" height="40" as="geometry" />
        </mxCell>
        <mxCell id="Z4Fr1Y4ZUjvE4ZE1ew2G-3" value="users" style="whiteSpace=wrap;html=1;align=center;" vertex="1" parent="1">
          <mxGeometry x="160" y="210" width="100" height="40" as="geometry" />
        </mxCell>
        <mxCell id="Z4Fr1Y4ZUjvE4ZE1ew2G-4" value="" style="edgeStyle=entityRelationEdgeStyle;fontSize=12;html=1;endArrow=ERoneToMany;rounded=0;entryX=0;entryY=0.5;entryDx=0;entryDy=0;exitX=1;exitY=0.5;exitDx=0;exitDy=0;" edge="1" parent="1" source="Z4Fr1Y4ZUjvE4ZE1ew2G-3" target="Z4Fr1Y4ZUjvE4ZE1ew2G-2">
          <mxGeometry width="100" height="100" relative="1" as="geometry">
            <mxPoint x="300" y="300" as="sourcePoint" />
            <mxPoint x="400" y="200" as="targetPoint" />
          </mxGeometry>
        </mxCell>
        <mxCell id="Z4Fr1Y4ZUjvE4ZE1ew2G-5" value="" style="edgeStyle=entityRelationEdgeStyle;fontSize=12;html=1;endArrow=ERoneToMany;rounded=0;entryX=1;entryY=0.75;entryDx=0;entryDy=0;exitX=0;exitY=0.75;exitDx=0;exitDy=0;" edge="1" parent="1" source="Z4Fr1Y4ZUjvE4ZE1ew2G-1" target="Z4Fr1Y4ZUjvE4ZE1ew2G-3">
          <mxGeometry width="100" height="100" relative="1" as="geometry">
            <mxPoint x="300" y="310" as="sourcePoint" />
            <mxPoint x="400" y="210" as="targetPoint" />
          </mxGeometry>
        </mxCell>
        <mxCell id="Z4Fr1Y4ZUjvE4ZE1ew2G-6" value="orders" style="whiteSpace=wrap;html=1;align=center;" vertex="1" parent="1">
          <mxGeometry x="-120" y="210" width="100" height="40" as="geometry" />
        </mxCell>
        <mxCell id="Z4Fr1Y4ZUjvE4ZE1ew2G-7" value="requests" style="whiteSpace=wrap;html=1;align=center;" vertex="1" parent="1">
          <mxGeometry x="20" y="210" width="100" height="40" as="geometry" />
        </mxCell>
        <mxCell id="Z4Fr1Y4ZUjvE4ZE1ew2G-8" value="" style="edgeStyle=entityRelationEdgeStyle;fontSize=12;html=1;endArrow=ERoneToMany;rounded=0;entryX=1;entryY=0.5;entryDx=0;entryDy=0;exitX=0;exitY=0.5;exitDx=0;exitDy=0;" edge="1" parent="1" source="Z4Fr1Y4ZUjvE4ZE1ew2G-3" target="Z4Fr1Y4ZUjvE4ZE1ew2G-7">
          <mxGeometry width="100" height="100" relative="1" as="geometry">
            <mxPoint x="-10" y="340" as="sourcePoint" />
            <mxPoint x="90" y="240" as="targetPoint" />
          </mxGeometry>
        </mxCell>
        <mxCell id="Z4Fr1Y4ZUjvE4ZE1ew2G-9" value="" style="edgeStyle=entityRelationEdgeStyle;fontSize=12;html=1;endArrow=ERoneToMany;rounded=0;entryX=1;entryY=0.5;entryDx=0;entryDy=0;exitX=0;exitY=0.5;exitDx=0;exitDy=0;" edge="1" parent="1" source="Z4Fr1Y4ZUjvE4ZE1ew2G-7" target="Z4Fr1Y4ZUjvE4ZE1ew2G-6">
          <mxGeometry width="100" height="100" relative="1" as="geometry">
            <mxPoint x="-60" y="330" as="sourcePoint" />
            <mxPoint x="40" y="230" as="targetPoint" />
          </mxGeometry>
        </mxCell>
        <mxCell id="Z4Fr1Y4ZUjvE4ZE1ew2G-10" value="processes" style="whiteSpace=wrap;html=1;align=center;" vertex="1" parent="1">
          <mxGeometry x="-120" y="320" width="100" height="40" as="geometry" />
        </mxCell>
        <mxCell id="Z4Fr1Y4ZUjvE4ZE1ew2G-24" value="states" style="whiteSpace=wrap;html=1;align=center;" vertex="1" parent="1">
          <mxGeometry x="-280" y="210" width="100" height="40" as="geometry" />
        </mxCell>
        <mxCell id="Z4Fr1Y4ZUjvE4ZE1ew2G-25" value="" style="fontSize=12;html=1;endArrow=ERoneToMany;rounded=0;exitX=1;exitY=0.5;exitDx=0;exitDy=0;entryX=0;entryY=0.5;entryDx=0;entryDy=0;" edge="1" parent="1" source="Z4Fr1Y4ZUjvE4ZE1ew2G-24" target="Z4Fr1Y4ZUjvE4ZE1ew2G-6">
          <mxGeometry width="100" height="100" relative="1" as="geometry">
            <mxPoint x="-140" y="260" as="sourcePoint" />
            <mxPoint x="-150" y="170" as="targetPoint" />
          </mxGeometry>
        </mxCell>
        <mxCell id="Z4Fr1Y4ZUjvE4ZE1ew2G-26" value="products" style="whiteSpace=wrap;html=1;align=center;" vertex="1" parent="1">
          <mxGeometry x="-110" y="90" width="100" height="40" as="geometry" />
        </mxCell>
        <mxCell id="Z4Fr1Y4ZUjvE4ZE1ew2G-27" value="categories" style="whiteSpace=wrap;html=1;align=center;" vertex="1" parent="1">
          <mxGeometry x="50" y="130" width="100" height="40" as="geometry" />
        </mxCell>
        <mxCell id="Z4Fr1Y4ZUjvE4ZE1ew2G-28" value="product_data" style="whiteSpace=wrap;html=1;align=center;" vertex="1" parent="1">
          <mxGeometry x="50" y="50" width="100" height="40" as="geometry" />
        </mxCell>
        <mxCell id="Z4Fr1Y4ZUjvE4ZE1ew2G-29" value="gems" style="whiteSpace=wrap;html=1;align=center;" vertex="1" parent="1">
          <mxGeometry x="-270" y="120" width="100" height="40" as="geometry" />
        </mxCell>
        <mxCell id="Z4Fr1Y4ZUjvE4ZE1ew2G-30" value="gold" style="whiteSpace=wrap;html=1;align=center;" vertex="1" parent="1">
          <mxGeometry x="-270" y="50" width="100" height="40" as="geometry" />
        </mxCell>
        <mxCell id="Z4Fr1Y4ZUjvE4ZE1ew2G-31" value="gold_prices" style="whiteSpace=wrap;html=1;align=center;" vertex="1" parent="1">
          <mxGeometry x="-430" y="50" width="100" height="40" as="geometry" />
        </mxCell>
        <mxCell id="Z4Fr1Y4ZUjvE4ZE1ew2G-32" value="" style="fontSize=12;html=1;endArrow=ERoneToMany;rounded=0;entryX=1;entryY=0.5;entryDx=0;entryDy=0;exitX=0;exitY=0.5;exitDx=0;exitDy=0;" edge="1" parent="1" source="Z4Fr1Y4ZUjvE4ZE1ew2G-30" target="Z4Fr1Y4ZUjvE4ZE1ew2G-31">
          <mxGeometry width="100" height="100" relative="1" as="geometry">
            <mxPoint x="-160" y="280" as="sourcePoint" />
            <mxPoint x="-60" y="180" as="targetPoint" />
          </mxGeometry>
        </mxCell>
        <mxCell id="Z4Fr1Y4ZUjvE4ZE1ew2G-34" value="" style="edgeStyle=entityRelationEdgeStyle;fontSize=12;html=1;endArrow=ERoneToMany;rounded=0;entryX=0;entryY=0.75;entryDx=0;entryDy=0;exitX=1;exitY=0.75;exitDx=0;exitDy=0;" edge="1" parent="1" source="Z4Fr1Y4ZUjvE4ZE1ew2G-29" target="Z4Fr1Y4ZUjvE4ZE1ew2G-26">
          <mxGeometry width="100" height="100" relative="1" as="geometry">
            <mxPoint x="-160" y="280" as="sourcePoint" />
            <mxPoint x="-60" y="180" as="targetPoint" />
          </mxGeometry>
        </mxCell>
        <mxCell id="Z4Fr1Y4ZUjvE4ZE1ew2G-35" value="" style="edgeStyle=entityRelationEdgeStyle;fontSize=12;html=1;endArrow=ERoneToMany;rounded=0;entryX=0;entryY=0.5;entryDx=0;entryDy=0;exitX=1;exitY=0.5;exitDx=0;exitDy=0;" edge="1" parent="1" source="Z4Fr1Y4ZUjvE4ZE1ew2G-30" target="Z4Fr1Y4ZUjvE4ZE1ew2G-26">
          <mxGeometry width="100" height="100" relative="1" as="geometry">
            <mxPoint x="-160" y="280" as="sourcePoint" />
            <mxPoint x="-60" y="180" as="targetPoint" />
          </mxGeometry>
        </mxCell>
        <mxCell id="Z4Fr1Y4ZUjvE4ZE1ew2G-36" value="" style="edgeStyle=entityRelationEdgeStyle;fontSize=12;html=1;endArrow=ERoneToMany;rounded=0;entryX=0;entryY=0.5;entryDx=0;entryDy=0;exitX=1;exitY=0.5;exitDx=0;exitDy=0;" edge="1" parent="1" source="Z4Fr1Y4ZUjvE4ZE1ew2G-26" target="Z4Fr1Y4ZUjvE4ZE1ew2G-28">
          <mxGeometry width="100" height="100" relative="1" as="geometry">
            <mxPoint x="-110" y="280" as="sourcePoint" />
            <mxPoint x="-10" y="180" as="targetPoint" />
          </mxGeometry>
        </mxCell>
        <mxCell id="Z4Fr1Y4ZUjvE4ZE1ew2G-37" value="" style="edgeStyle=entityRelationEdgeStyle;fontSize=12;html=1;endArrow=ERoneToMany;rounded=0;entryX=1;entryY=0.75;entryDx=0;entryDy=0;exitX=0;exitY=0.5;exitDx=0;exitDy=0;" edge="1" parent="1" source="Z4Fr1Y4ZUjvE4ZE1ew2G-27" target="Z4Fr1Y4ZUjvE4ZE1ew2G-26">
          <mxGeometry width="100" height="100" relative="1" as="geometry">
            <mxPoint x="-110" y="280" as="sourcePoint" />
            <mxPoint x="-10" y="180" as="targetPoint" />
          </mxGeometry>
        </mxCell>
        <mxCell id="Z4Fr1Y4ZUjvE4ZE1ew2G-39" value="" style="fontSize=12;html=1;endArrow=ERoneToMany;rounded=0;entryX=0.5;entryY=1;entryDx=0;entryDy=0;" edge="1" parent="1" target="Z4Fr1Y4ZUjvE4ZE1ew2G-6">
          <mxGeometry width="100" height="100" relative="1" as="geometry">
            <mxPoint x="-70" y="320" as="sourcePoint" />
            <mxPoint x="30" y="240" as="targetPoint" />
          </mxGeometry>
        </mxCell>
      </root>
    </mxGraphModel>
  </diagram>
</mxfile>
